# xmcd
#
# Track frame offsets:
#	150
#	9442
#	31715
#	55027
#	70366
#	84873
#	95030
#	107760
#	124109
#	134782
#	152371
#	164106
#	175616
#	189662
#	201846
#
# Disc length: 2888 seconds
#
# Revision: 0
# Processed by: cddbd v1.5.2PL0 Copyright (c) Steve Scherf et al.
# Submitted via: EZCDAudioConverter 7.0.4.1
#
DISCID=c50b460f
DTITLE=White, David C. - Last Encore
DYEAR=2013
DGENRE=Blues
TTITLE0=The Pain
TTITLE1=People get Ready
TTITLE2=I don´t wanna talk about it
TTITLE3=Knock on Wood
TTITLE4=Hit the Road Kack
TTITLE5=Sweet Soul Music
TTITLE6=Midnight Hour
TTITLE7=Could have loved you
TTITLE8=The Pain (Studiodemo)
TTITLE9=Come on Home
TTITLE10=Yer so bad
TTITLE11=You´ve got to hide your Love away
TTITLE12=Don´t look back
TTITLE13=It´s all over now
TTITLE14=Annie
EXTD=
EXTT0=
EXTT1=
EXTT2=
EXTT3=
EXTT4=
EXTT5=
EXTT6=
EXTT7=
EXTT8=
EXTT9=
EXTT10=
EXTT11=
EXTT12=
EXTT13=
EXTT14=
PLAYORDER=
